<svg width="48" height="50" viewBox="0 0 48 50" fill="none" xmlns="http://www.w3.org/2000/svg">
<path d="M47.8222 49.0594H0.177734V0.940918H41.1259C44.8 0.940918 47.7629 3.90388 47.7629 7.57795V49.0594H47.8222ZM1.36292 47.8742H46.5777V7.57795C46.5777 4.55573 44.1481 2.1261 41.1259 2.1261H1.36292V47.8742Z" fill="white"/>
<path d="M31.7629 19.1924H0.770264V20.3776H31.7629V19.1924Z" fill="white"/>
<path d="M16.8888 40.348L10.1332 34.2443H0.770264V33.0591H10.6073L17.6592 39.4591L16.8888 40.348Z" fill="white"/>
<path d="M26.9629 34.2444H22.4592V33.0592H25.7777V19.7852H26.9629V34.2444Z" fill="white"/>
<path d="M15.5259 14.0371H14.3407V19.7853H15.5259V14.0371Z" fill="white"/>
<path d="M15.5259 1.5332H14.3407V7.28135H15.5259V1.5332Z" fill="white"/>
<path d="M47.0517 19.1924H41.3036V20.3776H47.0517V19.1924Z" fill="white"/>
</svg>
