<svg width="28" height="50" viewBox="0 0 28 50" fill="none" xmlns="http://www.w3.org/2000/svg">
<path d="M27.2148 0.940918H0.725952V2.1261H27.2148V0.940918Z" fill="white"/>
<path d="M27.2148 47.874H0.725952V49.0592H27.2148V47.874Z" fill="white"/>
<path d="M14.8889 3.90381H13.7037V46.452H14.8889V3.90381Z" fill="white"/>
<path d="M5.88151 13.2073L5.05188 12.3777L13.9408 3.48881C14.1778 3.25178 14.5334 3.25178 14.7704 3.48881L23.6 12.3777L22.7704 13.2073L14.2963 4.73326L5.88151 13.2073Z" fill="white"/>
<path d="M14.2963 46.9852C14.1185 46.9852 14 46.9259 13.8815 46.8074L5.05188 37.9185L5.88151 37.0889L14.2963 45.5629L22.7111 37.0889L23.5408 37.9185L14.6519 46.8074C14.5926 46.9259 14.4148 46.9852 14.2963 46.9852Z" fill="white"/>
</svg>
